<?xml version="1.0" encoding="utf-8"?>
<svg viewBox="0 0 500 500" xmlns="http://www.w3.org/2000/svg">
  <g transform="matrix(0.10000000149011612, 0, 0, -0.10000000149011612, -420.18543106593825, 597.5912564633974)" fill="#000000" stroke="none">
    <path d="M5932 4813 l3 -258 103 -3 102 -3 0 161 0 160 240 0 240 0 0 -160 0 -161 103 3 102 3 3 258 2 257 -450 0 -450 0 2 -257z" style="stroke-width: 0px;"/>
    <path d="M6970 4235 l0 -635 100 0 100 0 0 530 0 530 240 0 240 0 0 -530 0 -530 105 0 105 0 0 530 0 530 240 0 240 0 0 -530 0 -530 105 0 105 0 -2 633 -3 632 -787 3 -788 2 0 -635z" style="stroke-width: 0px;"/>
    <path d="M4890 4230 l0 -630 450 0 450 0 0 105 0 105 -345 0 -345 0 0 425 0 425 345 0 345 0 0 100 0 100 -450 0 -450 0 0 -630z" style="stroke-width: 0px;"/>
    <path d="M5930 4050 l0 -450 105 0 105 0 0 345 0 345 240 0 240 0 0 -345 0 -345 105 0 105 0 0 450 0 450 -450 0 -450 0 0 -450z" style="stroke-width: 0px;"/>
    <path d="M4890 3105 l0 -445 450 0 451 0 -3 103 -3 102 -348 3 -348 2 3 68 3 67 123 3 122 3 0 99 0 99 -122 3 -123 3 0 65 0 65 348 3 347 2 0 100 0 100 -450 0 -450 0 0 -445z" style="stroke-width: 0px;"/>
    <path d="M5932 3103 l3 -448 103 -3 102 -3 0 351 0 350 190 0 c105 0 190 -3 190 -7 0 -4 -22 -30 -50 -58 l-50 -51 75 -74 76 -75 129 131 130 131 0 101 0 102 -450 0 -450 0 2 -447z" style="stroke-width: 0px;"/>
    <path d="M6970 3100 l0 -450 100 0 100 0 2 348 3 347 237 3 238 2 2 -347 3 -348 103 -3 102 -3 0 451 0 450 -445 0 -445 0 0 -450z" style="stroke-width: 0px;"/>
    <path d="M6332 3147 l-72 -72 209 -209 210 -210 55 55 c101 97 113 67 -122 302 l-207 207 -73 -73z" style="stroke-width: 0px;"/>
    <path d="M7237 3103 c-4 -3 -7 -51 -7 -105 l0 -98 180 0 180 0 0 105 0 105 -173 0 c-96 0 -177 -3 -180 -7z" style="stroke-width: 0px;"/>
    <path d="M4974 2424 c-54 -26 -70 -91 -34 -136 10 -14 42 -35 69 -47 71 -30 92 -79 51 -116 -16 -14 -31 -17 -79 -12 -46 4 -61 2 -65 -9 -8 -20 33 -34 94 -34 41 0 56 5 82 29 27 24 33 36 33 69 0 47 -22 75 -80 104 -58 29 -75 47 -75 79 0 37 28 52 88 47 37 -2 47 0 50 13 6 31 -82 39 -134 13z" style="stroke-width: 0px;"/>
    <path d="M8310 2429 c-64 -27 -100 -92 -100 -181 0 -111 60 -178 158 -178 55 0 93 20 129 67 25 33 28 44 28 119 0 89 -11 115 -67 157 -31 23 -111 32 -148 16z m118 -45 c34 -24 52 -68 52 -129 0 -94 -40 -145 -115 -145 -32 0 -47 6 -67 28 -84 87 -37 262 69 262 21 0 49 -7 61 -16z" style="stroke-width: 0px;"/>
    <path d="M5532 2413 c2 -14 15 -19 56 -21 l52 -3 0 -160 0 -160 23 3 c22 3 22 6 25 160 l3 157 52 3 c40 2 53 7 55 21 3 15 -8 17 -133 17 -125 0 -136 -2 -133 -17z" style="stroke-width: 0px;"/>
    <path d="M6230 2319 c0 -138 13 -191 53 -225 27 -23 38 -26 89 -22 105 8 128 51 128 241 l0 117 -25 0 -25 0 0 -134 c0 -120 -2 -136 -21 -160 -16 -21 -29 -26 -63 -26 -72 0 -80 17 -84 181 l-4 139 -24 0 c-24 0 -24 0 -24 -111z" style="stroke-width: 0px;"/>
    <path d="M6970 2256 l0 -173 38 -6 c50 -9 132 5 173 29 72 41 101 162 58 245 -29 57 -80 78 -186 79 l-83 0 0 -174z m164 130 c52 -22 76 -60 76 -123 0 -99 -44 -145 -139 -147 l-56 -1 -3 129 c-1 72 0 136 2 143 7 17 77 17 120 -1z" style="stroke-width: 0px;"/>
    <path d="M7710 2250 c0 -173 1 -180 20 -180 19 0 20 7 20 180 0 173 -1 180 -20 180 -19 0 -20 -7 -20 -180z" style="stroke-width: 0px;"/>
  </g>
</svg>